<?xml version="1.0" encoding="utf-8"?>
<!-- Generator: Adobe Illustrator 15.1.0, SVG Export Plug-In . SVG Version: 6.00 Build 0)  -->
<!DOCTYPE svg PUBLIC "-//W3C//DTD SVG 1.1//EN" "http://www.w3.org/Graphics/SVG/1.1/DTD/svg11.dtd">
<svg version="1.1" id="Layer_1" xmlns="http://www.w3.org/2000/svg" xmlns:xlink="http://www.w3.org/1999/xlink" x="0px" y="0px"
	 width="800px" height="600px" viewBox="0 0 800 600" enable-background="new 0 0 800 600" xml:space="preserve">
<path fill-rule="evenodd" clip-rule="evenodd" fill="#808080" d="M318.895,281.732c0,0,9.323-7.882,15.286-16.148
	c5.962-8.173,10.769-20.675,15.29-20.191c4.615,0.577,6.826,3.652,6.826,8.074c0,4.423-3.85,14.037-5.098,16.154
	c-1.249,2.211-0.479,4.037,5.098,4.037l9.728,0.407c7.451,0,10.047,1.656,10.771,5.275c0.663,3.311-1.62,5.67-4.166,6.365
	c-5.352,1.459-10.645,2.625-10.645,3.871c0,1.156,3.481,2.006,9.148,2.937c3.293,0.541,7.511,1.647,7.19,5.676
	c-0.37,4.642-3.311,5.487-6.812,6.338c-6.116,1.488-11.107,1.467-11.16,3.216c-0.043,1.408,4.646,1.528,9.732,2.494
	c2.73,0.519,5.323,1.62,4.739,5.548c-0.572,3.842-2.87,5.173-6.938,6.024c-5.948,1.245-10.994,0.775-10.993,2.083
	c0,1.342,3.202,1.452,7.174,2.546c2.5,0.688,4.745,2.083,4.134,5.146c-0.545,2.735-2.167,3.881-6.022,4.949
	c-3.239,0.897-7.466,1.015-12.692,1.015c-11.539,0-30.589-9.382-30.589-9.382V281.732z"/>
<rect x="290.271" y="280.372" fill-rule="evenodd" clip-rule="evenodd" fill="#808080" width="16.154" height="48.945"/>
<path fill-rule="evenodd" clip-rule="evenodd" fill="#808080" d="M464.938,325.753c0,0-9.322,7.883-15.285,16.148
	c-5.962,8.174-10.769,20.676-15.289,20.191c-4.615-0.576-6.826-3.652-6.826-8.074s3.85-14.037,5.098-16.154
	c1.249-2.211,0.479-4.037-5.098-4.037l-9.728-0.406c-7.45,0-10.047-1.656-10.771-5.275c-0.663-3.311,1.619-5.67,4.166-6.363
	c5.352-1.461,10.645-2.625,10.645-3.871c0-1.156-3.482-2.006-9.148-2.938c-3.293-0.541-7.512-1.646-7.189-5.676
	c0.369-4.643,3.311-5.487,6.811-6.339c6.117-1.488,11.107-1.467,11.16-3.216c0.043-1.408-4.646-1.528-9.732-2.494
	c-2.73-0.519-5.322-1.62-4.738-5.548c0.572-3.842,2.869-5.173,6.938-6.024c5.947-1.245,10.994-0.775,10.993-2.083
	c0-1.342-3.202-1.452-7.175-2.546c-2.5-0.688-4.744-2.083-4.134-5.146c0.545-2.735,2.167-3.881,6.022-4.949
	c3.239-0.897,7.467-1.015,12.692-1.015c11.539,0,30.589,9.382,30.589,9.382V325.753z"/>
<rect x="477.408" y="278.17" fill-rule="evenodd" clip-rule="evenodd" fill="#808080" width="16.154" height="48.944"/>
</svg>
